PathFileType	4	(X/Y/Z)	stereocamera_static.trc
DataRate	CameraRate	NumFrames	NumMarkers	Units	OrigDataRate	OrigDataStartFrame	OrigNumFrames
28.086763070077865	28.086763070077865	19	15	mm	28.086763070077865	77	203
Frame#	Time	JOINT_NECK			JOINT_RIGHT_CLAVICLE			JOINT_LEFT_CLAVICLE			JOINT_RIGHT_SHOULDER			JOINT_LEFT_SHOULDER			JOINT_RIGHT_ELBOW			JOINT_LEFT_ELBOW			JOINT_LEFT_WRIST			JOINT_RIGHT_WRIST			JOINT_SPINE_3			JOINT_SPINE_2			JOINT_SPINE_1			JOINT_PELVIS			JOINT_RIGHT_HIP			JOINT_LEFT_HIP
		X1	Y1	Z1	X2	Y2	Z2	X3	Y3	Z3	X4	Y4	Z4	X5	Y5	Z5	X6	Y6	Z6	X7	Y7	Z7	X8	Y8	Z8	X9	Y9	Z9	X10	Y10	Z10	X11	Y11	Z11	X12	Y12	Z12	X13	Y13	Z13	X14	Y14	Z14	X15	Y15	Z15

77	1749651036.660000	165.464390	4.601702	891.265750	101.771750	-0.627488	955.244100	238.786860	10.106996	893.233500	26.762873	-5.200073	991.043570	302.004340	14.108106	870.156600	-31.212552	-263.026240	1039.703000	351.203000	-216.128160	819.603000	nan	nan	nan	-66.376990	-393.540380	992.643240	158.313920	-84.126934	850.821800	153.085660	-164.534720	822.773000	150.758740	-245.829460	810.135100	148.885010	-321.879830	788.201300	nan	nan	nan	nan	nan	nan
78	1749651036.694000	167.700200	5.320534	904.691500	99.756286	0.508174	956.306930	237.978950	10.113776	893.587500	25.046580	-3.720850	994.508300	302.329630	14.564633	870.059430	-31.239394	-264.917170	1035.761600	351.026150	-215.724260	819.668700	nan	nan	nan	-68.389430	-396.796300	996.359940	158.320620	-84.100430	850.846050	153.094500	-163.569180	822.817740	150.756940	-245.829050	810.153500	150.503860	-321.897270	788.274200	nan	nan	nan	nan	nan	nan
79	1749651036.727000	169.235590	5.677134	912.440400	98.406880	1.079172	956.971470	237.305360	10.086030	893.920800	24.250109	-3.001124	995.077700	301.865100	15.183300	870.223700	-31.625215	-265.329700	1035.866700	351.205600	-215.972810	819.525660	nan	nan	nan	-68.240520	-395.563720	995.993700	158.469020	-81.904090	851.785800	153.092350	-163.074820	822.768800	150.747690	-245.843010	810.096700	149.137320	-321.918200	788.288400	nan	nan	nan	nan	nan	nan
80	1749651036.761000	170.181590	5.903110	916.178300	97.634720	1.376703	957.341850	236.816590	10.155693	894.157200	23.795595	-2.594545	994.646200	301.474100	15.283436	869.960200	-31.750686	-265.815000	1037.980200	351.606250	-216.272740	819.442900	nan	nan	nan	-69.051580	-397.483700	997.663500	158.425600	-82.597140	851.454900	153.096570	-162.818670	822.772500	150.743780	-245.771140	810.068300	148.028930	-321.854350	788.308200	nan	nan	nan	nan	nan	nan
81	1749651036.794000	170.698080	5.922198	917.364200	99.962585	1.392335	956.585470	236.525700	10.147288	894.266070	23.977690	-3.016532	995.331500	301.396070	15.240341	869.777700	-32.015190	-266.960800	1036.742700	351.893700	-217.058550	819.339500	nan	nan	nan	-69.611600	-398.349020	996.127600	158.399280	-83.238470	851.203900	153.045740	-164.964840	822.411950	150.715300	-245.741840	809.953100	149.505020	-321.896500	788.393400	nan	nan	nan	nan	nan	nan
82	1749651036.828000	170.860100	5.889192	917.023540	98.964900	1.315042	956.770540	236.356240	10.162666	894.255400	23.674002	-3.123179	995.715440	301.615480	14.403209	869.639930	-32.553025	-267.713500	1035.023800	352.301660	-217.555330	819.273770	nan	nan	nan	-70.986580	-399.335740	997.526350	158.384010	-83.692350	851.093800	153.001680	-166.449310	822.151360	150.697920	-245.701670	809.878300	148.246750	-321.875400	788.384560	nan	nan	nan	nan	nan	nan
83	1749651036.861000	170.769400	5.952165	915.850400	100.928970	1.329794	956.086160	236.290710	10.300353	894.233200	23.817483	-2.736896	990.333300	301.588570	14.532834	869.613700	-32.706916	-268.441100	1035.839000	351.952050	-216.261040	819.376650	nan	nan	nan	-71.504615	-400.127900	997.163200	158.360560	-83.852290	850.971400	153.023300	-165.079710	822.391450	150.685270	-245.556820	809.851000	147.348670	-321.745870	788.394400	nan	nan	nan	nan	nan	nan
84	1749651036.895000	170.522620	5.661219	914.413630	102.237820	0.975236	955.606000	236.269180	10.099992	894.209270	24.063205	-3.087148	991.252500	301.367430	14.614224	869.667600	-32.627065	-268.849850	1032.121800	352.275900	-216.469200	819.270000	nan	nan	nan	-73.629715	-405.825300	1010.545500	158.347100	-84.210224	850.942850	153.040050	-164.303100	822.494030	150.681180	-245.721820	809.734640	146.800940	-321.916000	788.285100	nan	nan	nan	nan	nan	nan
85	1749651036.928000	170.255100	5.535081	913.212400	103.000380	0.808686	955.333950	236.299990	10.043278	894.237760	24.643967	-3.136262	993.573550	301.780880	14.734790	870.328550	-31.996924	-266.360100	1029.190700	352.698950	-217.209180	818.757650	nan	nan	nan	-73.246670	-405.194160	1006.425500	158.358010	-84.340190	851.056800	153.054880	-163.708210	822.583300	150.671870	-245.754510	809.666160	146.509750	-321.955980	788.237400	nan	nan	nan	nan	nan	nan
86	1749651036.961000	170.026210	5.490154	912.374850	103.364980	0.744179	955.235960	236.345750	10.042354	894.234200	25.155319	-3.589556	995.147760	302.127060	14.645994	870.952200	-32.068730	-267.220600	1028.497600	352.648080	-217.665230	818.704800	nan	nan	nan	-73.401384	-403.091730	1004.688900	158.364650	-84.347010	851.099000	153.077540	-163.344530	822.716200	150.656570	-245.734100	809.619200	146.394610	-321.954300	788.249800	nan	nan	nan	nan	nan	nan
87	1749651037.029000	169.749830	5.577952	911.506800	100.229310	4.261628	959.588770	236.405390	10.164186	894.239400	22.545533	-2.020538	996.846800	301.788000	15.788093	871.163500	-31.647830	-263.976700	1032.145700	352.106750	-217.622280	818.823040	nan	nan	nan	-69.507020	-399.893820	1000.428800	158.541440	-81.235900	852.215700	153.079360	-162.993540	822.691600	150.645120	-245.610390	809.632800	146.388260	-321.842550	788.286000	nan	nan	nan	nan	nan	nan
88	1749651037.062000	169.646070	5.608857	911.480700	101.482530	2.780855	957.911200	236.424060	10.200515	894.190500	23.177470	-2.783373	985.566440	301.685450	15.598446	870.972600	-30.960258	-260.919870	1034.178700	351.309450	-216.601790	818.894450	nan	nan	nan	-65.760754	-396.812500	998.573200	158.481430	-82.452480	851.722840	153.086440	-163.045400	822.712840	150.642890	-245.572720	809.615200	146.523920	-321.811650	788.295450	nan	nan	nan	nan	nan	nan
89	1749651037.095000	169.579030	5.647331	911.439100	99.362984	1.867622	957.615140	236.440400	10.243595	894.230000	23.675306	-2.571702	984.525560	301.359980	16.136065	871.091500	-31.144276	-263.767720	1035.495000	351.504330	-216.641490	818.774300	nan	nan	nan	-67.687580	-398.414080	996.838330	158.611970	-80.829285	852.511300	153.088520	-163.072820	822.712300	150.645030	-245.532750	809.601300	149.050180	-321.782740	788.297000	nan	nan	nan	nan	nan	nan
90	1749651037.129000	169.557970	5.648479	911.439660	98.103240	1.266182	957.256500	236.449540	10.242447	894.224700	22.512095	-2.474621	988.998530	301.033680	15.973315	871.334430	-30.834563	-264.322000	1034.147900	351.920900	-217.715950	818.882100	nan	nan	nan	-67.131800	-400.778300	1004.729200	158.516500	-82.199425	851.821800	153.078400	-163.113730	822.647330	150.643830	-245.533660	809.600600	148.209830	-321.785270	788.322200	nan	nan	nan	nan	nan	nan
91	1749651037.162000	169.552530	5.572021	911.469160	100.175200	0.833869	956.296400	236.460040	10.167331	894.280400	24.228692	-2.052754	986.014960	300.801500	15.477821	871.464700	-30.818950	-265.559970	1033.667300	352.001580	-217.613100	819.565300	nan	nan	nan	-67.316525	-402.386960	1009.295200	156.114350	-85.670090	852.423850	148.641360	-172.583600	824.803800	142.764640	-256.966170	803.333900	137.955190	-336.788950	783.227860	nan	nan	nan	nan	nan	nan
92	1749651037.196000	169.561250	5.520552	911.444840	98.974300	0.614658	956.564840	236.471040	10.111347	894.291000	24.271859	-2.569005	984.361700	300.853900	14.740229	870.326160	-31.078843	-265.328320	1031.900800	352.372620	-217.851490	819.493300	nan	nan	nan	-68.046830	-408.428160	1020.721700	156.886400	-85.494690	851.756630	150.217430	-169.441770	824.143300	145.394550	-252.981800	805.560350	140.730300	-331.563260	785.191060	nan	nan	nan	nan	nan	nan
93	1749651037.229000	169.579070	5.592972	911.512550	98.166400	0.637755	956.726730	236.469480	10.180771	894.295200	23.836495	-2.829596	981.575500	301.033050	15.232012	870.234550	-30.901426	-264.305680	1034.067300	353.069370	-217.919110	819.491600	nan	nan	nan	-67.050910	-403.829400	1010.828100	157.519220	-85.074420	851.307600	151.500030	-166.746630	823.577940	147.627160	-249.616200	807.500360	143.183470	-327.199940	786.913100	nan	nan	nan	nan	nan	nan
94	1749651037.263000	165.407150	6.076992	890.588600	97.696744	0.591233	956.844030	236.467660	10.122180	894.283900	23.837540	-2.865747	986.170650	300.177130	15.354186	870.241760	-30.427124	-262.097540	1032.775900	352.608200	-217.674820	819.863860	nan	nan	nan	-65.321065	-401.065100	1006.275300	158.139850	-82.564555	852.077700	152.401250	-164.884240	823.070500	149.252710	-247.343100	808.813000	147.266940	-324.216160	787.935440	63.967340	-338.958620	822.878200	238.384570	-319.210000	792.674540
95	1749651037.296000	166.572970	5.928323	897.810760	100.090070	-1.896426	955.528600	236.451360	10.163933	894.257900	26.576860	-5.468771	987.840830	300.376180	14.230922	869.659300	-30.827781	-261.663730	1033.173100	352.246460	-216.850490	819.902400	nan	nan	nan	-66.547090	-400.372680	1001.383200	158.388170	-82.996210	851.629800	152.921050	-165.804920	822.483900	152.433130	-245.572750	808.342400	149.959920	-322.324280	788.531300	nan	nan	nan	nan	nan	nan
